<svg id="Grupo_27145" data-name="Grupo 27145" xmlns="http://www.w3.org/2000/svg" width="60" height="67.35" viewBox="0 0 60 67.35">
  <path id="Caminho_6732" data-name="Caminho 6732" d="M452.278,79.893a29.956,29.956,0,1,1,30-29.956,30.012,30.012,0,0,1-30,29.956m0-55.5A25.545,25.545,0,1,0,477.86,49.936a25.593,25.593,0,0,0-25.583-25.545" transform="translate(-422.278 -12.543)" class="primary"/>
  <path id="Caminho_6733" data-name="Caminho 6733" d="M495.083,19.32A2.235,2.235,0,0,1,493.5,15.5c2.489-2.489,3.677-4.745,3.533-6.705-.121-1.639-1.226-3.243-3.283-4.768A2.235,2.235,0,1,1,496.414.44c3.148,2.333,4.858,5.035,5.079,8.029.245,3.315-1.38,6.746-4.829,10.2a2.228,2.228,0,0,1-1.581.655" transform="translate(-466.937 -0.001)" class="primary"/>
  <path id="Caminho_6734" data-name="Caminho 6734" d="M473.857,79.524a3.92,3.92,0,1,1-3.92-3.92,3.92,3.92,0,0,1,3.92,3.92" transform="translate(-449.954 -47.833)" class="secondary"/>
  <path id="Caminho_6735" data-name="Caminho 6735" d="M528.409,79.524a3.919,3.919,0,1,1-3.919-3.92,3.919,3.919,0,0,1,3.919,3.92" transform="translate(-484.472 -47.833)" class="secondary"/>
  <path id="Caminho_6736" data-name="Caminho 6736" d="M497.149,122.885c0,2.954-4.354,7.668-9.724,7.668s-9.724-4.714-9.724-7.668,4.353-3.031,9.724-3.031,9.724.076,9.724,3.031" transform="translate(-457.424 -75.858)" class="secondary"/>
</svg>
