<svg id="Care_Heart" xmlns="http://www.w3.org/2000/svg" width="48" height="48" viewBox="0 0 48 48">
  <g id="Grupo_28120" data-name="Grupo 28120">
    <path id="Caminho_23525" data-name="Caminho 23525" d="M11.34,18.51A4.194,4.194,0,0,1,8.38,17.3a2.13,2.13,0,0,1-.63-1.49,2.072,2.072,0,0,1,.6-1.47L17.4,5.29a3.1,3.1,0,0,1,2.21-.92l17.22-.08a3.02,3.02,0,0,1,2.23.92,3.106,3.106,0,0,1,.92,2.23V9.57a1.026,1.026,0,0,1-.28.7,7.409,7.409,0,0,1-7.14,5.41h-7.5a4.217,4.217,0,0,1-4.21-4.21,3.789,3.789,0,0,1,.1-.84L14.3,17.28a4.2,4.2,0,0,1-2.98,1.23ZM36.86,6.3h0l-17.22.08a1.136,1.136,0,0,0-.8.33h0L9.79,15.76l-.69.83.7-.71a2.227,2.227,0,0,0,3.12-.01l7-7a.99.99,0,0,1,.71-.29h2.29a1,1,0,0,1,.51,1.85,1.125,1.125,0,0,0-.56.97,2.227,2.227,0,0,0,2.21,2.28h7.5a5.418,5.418,0,0,0,5.41-5.16.3.3,0,0,1,.02-.13V7.44a1.127,1.127,0,0,0-.34-.81,1.159,1.159,0,0,0-.81-.33ZM18.13,6.01Z" class="primary"/>
    <path id="Caminho_23526" data-name="Caminho 23526" d="M30.43,10.58h-7.5a1,1,0,1,1,0-2h7.5a1,1,0,1,1,0,2Z" class="primary"/>
  </g>
  <g id="Grupo_28121" data-name="Grupo 28121">
    <path id="Caminho_23527" data-name="Caminho 23527" d="M10.9,43.86a3.9,3.9,0,0,1-2.63-1.13,1.43,1.43,0,0,1-.51-1.02l.02-3.15c.18-3.72,3.09-6.1,7.41-6.1h7.5a4.217,4.217,0,0,1,4.21,4.21,3.789,3.789,0,0,1-.1.84l6.65-6.65a4.216,4.216,0,0,1,5.93-.02,2.13,2.13,0,0,1,.63,1.49,2.072,2.072,0,0,1-.6,1.47l-9.05,9.05h0a3.1,3.1,0,0,1-2.21.92l-17.22.08h-.02Zm18.74-1.71ZM9.76,41.38a1.9,1.9,0,0,0,1.14.47h0l17.22-.08a1.136,1.136,0,0,0,.8-.33l9.05-9.05.69-.83-.7.71a2.227,2.227,0,0,0-3.12.01l-7,7a.99.99,0,0,1-.71.29H24.84a1,1,0,0,1-.51-1.85,1.125,1.125,0,0,0,.56-.97,2.227,2.227,0,0,0-2.21-2.28h-7.5c-1.22,0-5.22.3-5.41,4.16v2.75Zm-.14-.12Z" class="primary"/>
    <path id="Caminho_23528" data-name="Caminho 23528" d="M24.82,39.58h-7.5a1,1,0,0,1,0-2h7.5a1,1,0,0,1,0,2Z" class="primary"/>
  </g>
  <g id="Caminho_22909">
    <path id="Caminho_23529" data-name="Caminho 23529" d="M24.05,28.84a.4.4,0,0,1-.27-.12c-.84-.98-1.59-1.78-2.25-2.49-1.65-1.76-2.65-2.83-2.61-4.19a2.935,2.935,0,0,1,.86-2.05,3.071,3.071,0,0,1,2.03-.84h.02a2.888,2.888,0,0,1,2.18,1.08,2.888,2.888,0,0,1,2.18-1.08h.02a3.123,3.123,0,0,1,2.03.84,2.978,2.978,0,0,1,.86,2.05c.04,1.3-.76,2.16-2.2,3.74-.69.75-1.55,1.69-2.56,2.93a.368.368,0,0,1-.27.13h0" class="secondary"/>
  </g>
</svg>
