<svg id="Cellphone_Money" xmlns="http://www.w3.org/2000/svg" width="48" height="48" viewBox="0 0 48 48">
  <g id="Grupo_28122" data-name="Grupo 28122">
    <path id="Caminho_23530" data-name="Caminho 23530" d="M31,6a3.009,3.009,0,0,1,3,3V39a3.009,3.009,0,0,1-3,3H17a3.009,3.009,0,0,1-3-3V9a3.009,3.009,0,0,1,3-3H31m0-2H17a5,5,0,0,0-5,5V39a5,5,0,0,0,5,5H31a5,5,0,0,0,5-5V9a5,5,0,0,0-5-5Z" class="primary"/>
    <path id="Caminho_23531" data-name="Caminho 23531" d="M28,10H20a1,1,0,0,1,0-2h8a1,1,0,0,1,0,2Z" class="primary"/>
    <circle id="Elipse_1789" data-name="Elipse 1789" cx="2.5" cy="2.5" r="2.5" transform="translate(21.5 36)" class="primary"/>
  </g>
  <path id="Caminho_23532" data-name="Caminho 23532" d="M24.43,27.53v.91h-1v-.89a8.339,8.339,0,0,1-1.04-.1,3.7,3.7,0,0,1-.76-.18V25.65a5.748,5.748,0,0,0,1.02.23,9.356,9.356,0,0,0,1.18.08,1.218,1.218,0,0,0,.64-.12.54.54,0,0,0,.18-.48.616.616,0,0,0-.07-.34.462.462,0,0,0-.3-.16l-1.23-.32a2,2,0,0,1-1.15-.63,1.916,1.916,0,0,1-.29-1.14,2.457,2.457,0,0,1,.45-1.58,2.13,2.13,0,0,1,1.38-.7v-.93h1v.88a6.086,6.086,0,0,1,.8.06,3.781,3.781,0,0,1,.64.14v1.53c-.54-.09-.92-.15-1.12-.17s-.42-.02-.64-.02a1.043,1.043,0,0,0-.63.15.625.625,0,0,0-.19.52.368.368,0,0,0,.07.26.453.453,0,0,0,.25.13l1.22.32a4.63,4.63,0,0,1,.85.29,1.151,1.151,0,0,1,.38.3,1.508,1.508,0,0,1,.26.54,3.592,3.592,0,0,1,.08.8,2.336,2.336,0,0,1-.48,1.6,2.321,2.321,0,0,1-1.49.64Z" class="secondary"/>
  <path id="Caminho_23533" data-name="Caminho 23533" d="M24,32.02a8.074,8.074,0,0,1-2.93-15.6,1,1,0,1,1,.72,1.86,6.08,6.08,0,1,0,4.42,0,1,1,0,0,1,.72-1.86A8.074,8.074,0,0,1,24,32.02Z" class="secondary"/>
  <path id="Caminho_23534" data-name="Caminho 23534" d="M24.46,17.45l1.66,2.17a.888.888,0,0,0,1.5-.15l1.07-2.2A.884.884,0,0,0,27.88,16l-2.73.03A.878.878,0,0,0,24.46,17.45Z" class="secondary"/>
</svg>
