<svg xmlns="http://www.w3.org/2000/svg" width="47.544" height="64.528" viewBox="0 0 47.544 64.528">
  <g id="Grupo_27849" data-name="Grupo 27849" transform="translate(12982.294 18206.006)">
    <path id="Caminho_23316" data-name="Caminho 23316" d="M2465,755.285a1.264,1.264,0,0,1-1.265-1.265V727.36a5.144,5.144,0,1,1,10.288,0v20.385a1.265,1.265,0,0,1-2.53,0V727.36a2.614,2.614,0,1,0-5.228,0v26.66a1.265,1.265,0,0,1-1.265,1.265" transform="translate(-15431.991 -18913.918)" class="primary"/>
    <path id="Caminho_23317" data-name="Caminho 23317" d="M2494.223,773.79a1.265,1.265,0,0,1-1.265-1.265v-6.362a2.614,2.614,0,0,0-5.228,0v6.362a1.265,1.265,0,1,1-2.529,0v-6.362a5.143,5.143,0,1,1,10.287,0v6.362a1.265,1.265,0,0,1-1.265,1.265" transform="translate(-15445.698 -18938.699)" class="primary"/>
    <path id="Caminho_23318" data-name="Caminho 23318" d="M2515.688,778.557a1.265,1.265,0,0,1-1.265-1.265v-3.664a2.614,2.614,0,1,0-5.227,0v3.664a1.265,1.265,0,0,1-2.53,0v-3.664a5.144,5.144,0,0,1,10.288,0v3.664a1.265,1.265,0,0,1-1.265,1.265" transform="translate(-15459.406 -18943.467)" class="primary"/>
    <path id="Caminho_23319" data-name="Caminho 23319" d="M2537,790.913a1.265,1.265,0,0,1-1.265-1.265V779.529a2.614,2.614,0,0,0-5.228,0v1.532a1.265,1.265,0,1,1-2.53,0v-1.532a5.143,5.143,0,1,1,10.287,0v10.119a1.265,1.265,0,0,1-1.265,1.265" transform="translate(-15473.015 -18947.234)" class="primary"/>
    <path id="Caminho_23320" data-name="Caminho 23320" d="M2464.194,811.425h-17.033a8.217,8.217,0,0,1-7.192-4.229l-13.577-13.576a5.144,5.144,0,0,1,7.274-7.274l5.259,5.259v-7.078a1.265,1.265,0,0,1,2.53,0v10.132a1.265,1.265,0,0,1-2.16.895l-7.417-7.419a2.614,2.614,0,1,0-3.7,3.7l13.706,13.706a1.228,1.228,0,0,1,.224.3,5.7,5.7,0,0,0,5.05,3.053h17.033a5.712,5.712,0,0,0,5.706-5.706V784.526a1.265,1.265,0,0,1,2.53,0v18.663a8.245,8.245,0,0,1-8.235,8.236" transform="translate(-15407.18 -18952.902)" class="primary"/>
    <path id="Caminho_23321" data-name="Caminho 23321" d="M2479.272,693.534a1.194,1.194,0,0,1-1.195-1.194v-8.5a1.194,1.194,0,0,1,2.389,0v8.5a1.194,1.194,0,0,1-1.194,1.194" transform="translate(-15441.148 -18888.646)" class="secondary"/>
    <path id="Caminho_23322" data-name="Caminho 23322" d="M2514.022,726.794h-7.72a1.084,1.084,0,0,1,0-2.168h7.72a1.084,1.084,0,1,1,0,2.168" transform="translate(-15458.479 -18915.457)" class="secondary"/>
    <path id="Caminho_23323" data-name="Caminho 23323" d="M2434.191,726.794h-7.72a1.084,1.084,0,0,1,0-2.168h7.72a1.084,1.084,0,1,1,0,2.168" transform="translate(-15407.5 -18915.457)" class="secondary"/>
    <path id="Caminho_23324" data-name="Caminho 23324" d="M2500.149,703.3a1.194,1.194,0,0,1-.844-2.039l6.014-6.013a1.194,1.194,0,0,1,1.689,1.689l-6.014,6.013a1.192,1.192,0,0,1-.845.35" transform="translate(-15454.482 -18896.477)" class="secondary"/>
    <path id="Caminho_23325" data-name="Caminho 23325" d="M2448.27,703.3a1.191,1.191,0,0,1-.844-.35l-6.013-6.013a1.194,1.194,0,1,1,1.689-1.689l6.013,6.013a1.194,1.194,0,0,1-.844,2.039" transform="translate(-15417.511 -18896.477)" class="secondary"/>
  </g>
</svg>
