<svg xmlns="http://www.w3.org/2000/svg" width="80.141" height="50.462" viewBox="0 0 80.141 50.462">
  <g id="Grupo_26962" data-name="Grupo 26962" transform="translate(0)">
    <path id="Caminho_6750" data-name="Caminho 6750" d="M859.026,94.868a19.136,19.136,0,0,1-15.451-7.806H832.74a19.2,19.2,0,1,1-15.451-30.6c.281,0,.57.008.886.024a2.123,2.123,0,0,1,.32-.024h40.532a19.2,19.2,0,0,1,0,38.4m-27.4-12.046h13.056a2.12,2.12,0,0,1,1.779.967A14.961,14.961,0,1,0,859.026,60.7H818.94a2.089,2.089,0,0,1-.594.042c-.409-.029-.745-.042-1.057-.042A14.962,14.962,0,1,0,829.85,83.789a2.12,2.12,0,0,1,1.779-.967" transform="translate(-798.087 -44.406)" class="primary"/>
    <path id="Caminho_6751" data-name="Caminho 6751" d="M825.649,102.8h0a3.291,3.291,0,0,1,3.291-3.291h9.188a3.291,3.291,0,0,1,0,6.581H828.94a3.291,3.291,0,0,1-3.291-3.291" transform="translate(-815.917 -72.251)" class="secondary"/>
    <path id="Caminho_6752" data-name="Caminho 6752" d="M841.951,102.266h0a3.291,3.291,0,0,1-3.291-3.291V89.788a3.29,3.29,0,1,1,6.581,0v9.188a3.29,3.29,0,0,1-3.29,3.291" transform="translate(-824.334 -63.835)" class="secondary"/>
    <path id="Caminho_6753" data-name="Caminho 6753" d="M907.684,38.614a2.12,2.12,0,0,1-2.12-2.12,14.193,14.193,0,0,1,14.177-14.177,2.12,2.12,0,1,1,0,4.24,9.948,9.948,0,0,0-9.937,9.937,2.12,2.12,0,0,1-2.12,2.12" transform="translate(-867.614 -22.317)" class="primary"/>
    <path id="Caminho_6754" data-name="Caminho 6754" d="M948.794,100.474a3.718,3.718,0,1,1-3.718-3.718,3.718,3.718,0,0,1,3.718,3.718" transform="translate(-890.768 -70.471)" class="secondary"/>
    <path id="Caminho_6755" data-name="Caminho 6755" d="M982.286,100.474a3.718,3.718,0,1,1-3.719-3.718,3.718,3.718,0,0,1,3.719,3.718" transform="translate(-912.435 -70.471)" class="secondary"/>
  </g>
</svg>
