<svg  xmlns="http://www.w3.org/2000/svg" width="100%" height="100%" viewBox="0 0 56 54.852">
  <path id="Caminho_6737" data-name="Caminho 6737" d="M61.7,68.079c-4.391,0-5.5-4.6-6.4-8.3-.738-3.048-1.4-5.379-2.589-5.379-1.382,0-2.184,2.208-3.168,5.327C48.436,63.234,47.061,67.6,42.8,67.6c-4.475,0-8.45-4.408-11.493-12.747A71.04,71.04,0,0,1,27.3,31.773,33.036,33.036,0,0,1,29.3,19.319c2.133-5.036,5.491-6.092,7.932-6.092,3.543,0,5.633,2.064,7.477,3.885,2.012,1.987,3.912,3.863,8,3.863,3.977,0,5.932-1.885,8-3.88,1.881-1.813,4.012-3.868,7.473-3.868,2.368,0,5.622.994,7.678,5.73,1.271,2.926,1.915,6.886,1.915,11.767a74.445,74.445,0,0,1-4.293,23.949C69.413,65.754,64.828,68.079,61.7,68.079M52.7,50.313c4.58,0,5.772,4.926,6.643,8.522.556,2.3,1.248,5.156,2.35,5.156,2.907,0,6.056-5.767,7.87-10.7a70.145,70.145,0,0,0,4.046-22.562,26.715,26.715,0,0,0-1.581-10.163c-1.263-2.909-2.8-3.245-3.85-3.245-1.678,0-2.771.975-4.558,2.7-2.334,2.25-5.239,5.051-10.917,5.051-5.822,0-8.667-2.811-10.953-5.069-1.782-1.76-2.793-2.679-4.526-2.679-.637,0-2.575,0-4.089,3.574a29.158,29.158,0,0,0-1.674,10.883c0,14.829,6.04,31.735,11.338,31.735,1.19,0,2.025-2.65,2.762-4.989,1.153-3.656,2.587-8.206,7.139-8.206" transform="translate(-24.52 -13.227)" class="primary"/>
  <path id="Caminho_6738" data-name="Caminho 6738" d="M89.829,76.249H82.9a3.86,3.86,0,0,1-3.861-3.861V65.455A3.86,3.86,0,0,1,82.9,61.594h6.934a3.861,3.861,0,0,1,3.861,3.861v6.933a3.861,3.861,0,0,1-3.861,3.861" transform="translate(-58.337 -44.836)" class="secondary"/>
  <path id="Caminho_6739" data-name="Caminho 6739" d="M133.852,80.851H114.134a2.086,2.086,0,0,1,0-4.172h19.718a2.086,2.086,0,0,1,0,4.172" transform="translate(-79.938 -54.681)" class="secondary"/>
  <path id="Caminho_6740" data-name="Caminho 6740" d="M41.152,80.851H21.384a2.086,2.086,0,0,1,0-4.172H41.152a2.086,2.086,0,0,1,0,4.172" transform="translate(-19.298 -54.681)" class="secondary"/>
</svg>
