<svg id="Shine" xmlns="http://www.w3.org/2000/svg" width="48" height="48" viewBox="0 0 48 48">
  <g id="Caminho_22938">
    <path id="Caminho_23546" data-name="Caminho 23546" d="M27.91,42.67c-3.36,0-4.21-3.58-4.77-5.96-.2-.84-.67-2.8-1.05-3.03-.43,0-1.09,2.13-1.37,3.04-.74,2.38-1.74,5.63-4.98,5.63-2.23,0-5.43-1.53-8.04-8.81A47.884,47.884,0,0,1,5.08,18.18,22.534,22.534,0,0,1,6.42,9.75c1.6-3.84,4.27-4.41,5.73-4.41,2.56,0,4.08,1.52,5.29,2.75,1.3,1.31,2.33,2.34,4.69,2.34s3.35-1.04,4.69-2.35c1.3-1.28,2.78-2.73,5.28-2.73,1.41,0,4.02.54,5.56,4.17a20.812,20.812,0,0,1,1.29,7.98,50.174,50.174,0,0,1-2.8,15.93c-2.21,6.14-4.98,9.25-8.22,9.25h0ZM22.12,31.7c1.88,0,2.41,2.21,2.97,4.55.62,2.59,1.18,4.42,2.82,4.42h0c2.25,0,4.5-2.81,6.34-7.92a48.16,48.16,0,0,0,2.69-15.28,18.815,18.815,0,0,0-1.13-7.19c-.83-1.96-2.09-2.95-3.72-2.95s-2.7,1-3.88,2.16c-1.4,1.37-2.98,2.93-6.09,2.93s-4.74-1.56-6.1-2.93c-1.15-1.16-2.14-2.16-3.87-2.16s-3,1.07-3.88,3.18a20.835,20.835,0,0,0-1.18,7.66A45.822,45.822,0,0,0,9.6,32.88c1.73,4.81,3.91,7.47,6.15,7.47,1.64,0,2.28-1.67,3.07-4.22.67-2.18,1.37-4.43,3.31-4.43Z" class="primary"/>  </g>
  <path id="Caminho_23547" data-name="Caminho 23547" d="M36.78,9.61l-1.98,2.6a1,1,0,0,1-1.59,0l-1.98-2.6a1,1,0,0,1,0-1.21l1.98-2.6a1,1,0,0,1,1.59,0l1.98,2.6a1,1,0,0,1,0,1.21Z" class="secondary"/>
  <path id="Caminho_23548" data-name="Caminho 23548" d="M43.36,18.99l-4.57,5.97a1,1,0,0,1-1.59,0l-4.57-5.97a1,1,0,0,1,0-1.21l4.57-5.97a1,1,0,0,1,1.59,0l4.57,5.97a1,1,0,0,1,0,1.21Z" class="secondary"/>
</svg>
