<svg width="100%" height="100%" viewBox="0 0 136 136" fill="none" xmlns="http://www.w3.org/2000/svg">
    <path fill-rule="evenodd" clip-rule="evenodd" d="M54.8147 123.717C56.8686 125.843 58.5895 126.549 59.9481 126.549C60.5294 126.549 61.2122 126.356 62.1951 124.645C63.2446 122.817 64.0372 120.256 65.0212 117.076L65.0271 117.057C65.9306 114.137 67.018 110.624 68.7051 107.873C70.4887 104.965 73.3451 102.29 77.8015 102.29C82.3732 102.29 85.0991 105.234 86.6664 108.249C88.1352 111.074 88.9877 114.669 89.6989 117.669L89.7238 117.774C90.5063 121.074 91.1459 123.735 92.0832 125.623C92.9588 127.387 93.5572 127.471 94.0098 127.471C95.2649 127.471 96.9594 126.786 99.0533 124.608C101.123 122.455 103.222 119.2 105.208 115.017C109.17 106.676 112.346 95.3723 114.074 83.9515C115.806 72.4985 116.022 61.3126 114.333 53.1623C113.486 49.0742 112.222 46.0653 110.706 44.1543C109.294 42.3739 107.703 41.5606 105.702 41.5606C105.565 41.5606 105.43 41.5532 105.297 41.5389C102.442 41.6884 100.667 43.414 97.3347 46.6522C97.022 46.9561 96.6956 47.2733 96.3533 47.6038C92.4014 51.4197 87.1489 55.7847 77.8095 55.7847C68.2626 55.7847 63.074 51.4295 59.1727 47.573C58.8283 47.2325 58.5007 46.9063 58.1874 46.5943C54.8136 43.2342 53.1006 41.5283 49.9006 41.5283C47.9041 41.5283 46.2739 42.3421 44.8062 44.1318C43.2417 46.0394 41.913 49.03 40.9774 53.0753C39.1113 61.1444 39.0769 72.2162 40.5629 83.5481C42.0451 94.8517 44.9891 106.028 48.8073 114.266C50.7215 118.397 52.7699 121.601 54.8147 123.717ZM106.285 34.0436C106.098 34.0147 105.906 33.9998 105.71 33.9998C99.3646 33.9998 95.3013 38.0497 92.2108 41.1301C91.8429 41.4969 91.4887 41.8499 91.1461 42.1806C87.7157 45.493 84.2592 48.2562 77.8095 48.2562C71.1401 48.2562 67.7528 45.4832 64.443 42.2115C64.109 41.8813 63.7641 41.529 63.4058 41.1631C60.3778 38.0703 56.3925 33.9998 49.9006 33.9998C45.3472 33.9998 41.6909 36.0781 39.0078 39.3497C36.4214 42.5035 34.7352 46.7433 33.6641 51.3745C31.517 60.6584 31.5715 72.7241 33.1195 84.5296C34.6713 96.3634 37.7752 108.325 41.9992 117.439C44.1061 121.985 46.5773 126.011 49.4233 128.956C52.2602 131.892 55.8011 134.078 59.9481 134.078C64.3625 134.078 67.0714 131.239 68.7008 128.402C70.1784 125.829 71.1886 122.556 72.0483 119.77C72.0973 119.612 72.1457 119.455 72.1937 119.3C73.1664 116.157 73.9996 113.611 75.1 111.817C76.1059 110.176 76.9075 109.818 77.8015 109.818C78.4591 109.818 79.122 110.022 80.0094 111.729C80.9781 113.592 81.6435 116.241 82.4201 119.516C82.4516 119.649 82.4834 119.783 82.5155 119.919C83.2049 122.833 84.0184 126.271 85.3624 128.978C86.8306 131.936 89.4547 135 94.0098 135C98.1211 135 101.64 132.765 104.458 129.833C107.3 126.876 109.812 122.832 111.986 118.254C116.346 109.076 119.691 97.0193 121.496 85.0804C123.297 73.1736 123.625 60.9997 121.683 51.6302C120.715 46.9583 119.119 42.6673 116.582 39.4683C114.054 36.281 110.598 34.2143 106.285 34.0436Z"  class="primary" />
    <path d="M52.1371 28.151C51.4343 28.2522 50.7171 28.1688 50.0563 27.9088C49.3954 27.6489 48.8135 27.2215 48.3679 26.6686C47.9223 26.1157 47.6282 25.4563 47.5145 24.7553C47.4009 24.0544 47.4716 23.3359 47.7198 22.6705L54.5145 4.21113C54.7006 3.70675 54.9842 3.24397 55.3491 2.84919C55.714 2.45441 56.1531 2.13537 56.6413 1.91028C57.1295 1.6852 57.6572 1.55848 58.1944 1.53735C58.7316 1.51623 59.2677 1.60112 59.772 1.78717C60.2764 1.97323 60.7392 2.25681 61.134 2.62171C61.5288 2.98662 61.8478 3.42571 62.0729 3.91392C62.298 4.40212 62.4247 4.92988 62.4458 5.46706C62.4669 6.00424 62.382 6.54032 62.196 7.04469L55.4134 25.5023C55.1576 26.1987 54.7179 26.8127 54.141 27.2791C53.5641 27.7455 52.8716 28.0468 52.1371 28.151V28.151Z"  class="secondary" />
    <path d="M24.4009 53.0585C24.2013 53.0991 23.9993 53.1277 23.7962 53.1443L4.10924 52.9149C3.04961 52.8644 2.05067 52.4056 1.32188 51.6348C0.593095 50.8639 0.191077 49.8408 0.200127 48.78C0.209177 47.7192 0.628592 46.7031 1.37042 45.9448C2.11226 45.1865 3.11888 44.7449 4.17922 44.7125L23.8542 44.8573C24.8971 44.8493 25.9036 45.2397 26.6683 45.9489C27.433 46.658 27.8981 47.6324 27.9686 48.6729C28.039 49.7134 27.7096 50.7416 27.0475 51.5474C26.3854 52.3532 25.4406 52.8757 24.4062 53.0084L24.4009 53.0585Z"  class="secondary" />
    <path d="M31.8039 33.0811C31.0513 33.1861 30.2842 33.0808 29.5878 32.7767C28.8914 32.4727 28.2927 31.9818 27.8581 31.3584L16.6547 15.1813C16.1119 14.2866 15.9313 13.2184 16.1499 12.195C16.3685 11.1716 16.9697 10.2703 17.8307 9.67547C18.6917 9.08062 19.7474 8.8371 20.7819 8.9947C21.8165 9.15229 22.7518 9.69911 23.3966 10.5233L34.5999 26.7004C34.9966 27.2756 35.2398 27.9424 35.3067 28.6379C35.3735 29.3333 35.2617 30.0343 34.9819 30.6745C34.7021 31.3146 34.2635 31.8728 33.7076 32.296C33.1518 32.7193 32.4971 32.9937 31.8056 33.0932L31.8039 33.0811Z"  class="secondary" />
</svg>
