<svg width="100%" height="100%" viewBox="0 0 128 136" fill="none" xmlns="http://www.w3.org/2000/svg">
    <path d="M69.0003 136C66.7797 136.008 64.5887 135.491 62.6068 134.489C60.6249 133.488 58.9086 132.031 57.5985 130.238L13.4808 70.343C11.7185 67.9571 10.7512 65.0774 10.7158 62.1115C10.6805 59.1455 11.579 56.2436 13.2841 53.8164L27.4778 33.5611C28.7859 31.6994 30.5225 30.1794 32.541 29.1294C34.5596 28.0793 36.801 27.53 39.0764 27.5276H98.9242C101.2 27.5276 103.442 28.076 105.461 29.1262C107.48 30.1765 109.216 31.6977 110.523 33.5611L124.726 53.8071C126.431 56.2342 127.329 59.1361 127.294 62.1021C127.259 65.068 126.292 67.9478 124.529 70.3336L80.449 130.238C79.1342 132.037 77.4104 133.498 75.4197 134.5C73.4291 135.502 71.2287 136.016 69.0003 136V136ZM39.0764 33.8141C37.8173 33.8226 36.5786 34.1324 35.4638 34.7175C34.3489 35.3026 33.3903 36.1461 32.6681 37.1774L18.4275 57.4234C17.4787 58.7744 16.9782 60.3893 16.9967 62.0401C17.0152 63.6909 17.5517 65.2942 18.5306 66.6236L62.6482 126.509C63.3794 127.504 64.3345 128.314 65.4363 128.871C66.5382 129.429 67.7559 129.72 68.9909 129.72C70.2259 129.72 71.4436 129.429 72.5455 128.871C73.6474 128.314 74.6025 127.504 75.3336 126.509L119.451 66.6236C120.431 65.2952 120.97 63.6924 120.99 62.0416C121.01 60.3908 120.511 58.7754 119.564 57.4234L105.379 37.1774C104.653 36.1391 103.687 35.2912 102.563 34.7057C101.44 34.1202 100.191 33.8143 98.9242 33.8141H39.0764Z"  class="primary" />
    <path d="M107.132 62.7916C106.613 62.7937 106.102 62.6674 105.644 62.4238C105.187 62.1802 104.796 61.8269 104.508 61.3957L94.2028 45.8622C93.7418 45.1689 93.5752 44.321 93.7395 43.5049C93.9037 42.6887 94.3855 41.9713 95.0787 41.5104C95.772 41.0495 96.62 40.8828 97.4361 41.0471C98.2522 41.2114 98.9696 41.6931 99.4306 42.3864L109.736 57.9105C110.196 58.6054 110.361 59.4541 110.196 60.2707C110.031 61.0873 109.549 61.8051 108.856 62.267C108.346 62.6086 107.746 62.7912 107.132 62.7916V62.7916Z"  class="secondary" />
    <path d="M41.9164 21.9624C41.3718 21.9635 40.8362 21.8229 40.3624 21.5543C39.8886 21.2858 39.4928 20.8985 39.214 20.4307C38.9351 19.9628 38.7829 19.4304 38.7721 18.8859C38.7613 18.3414 38.8925 17.8034 39.1526 17.3249L46.301 4.03993C46.4966 3.67699 46.7618 3.35612 47.0814 3.09567C47.4011 2.83521 47.7689 2.64026 48.1638 2.52194C48.5588 2.40362 48.9732 2.36426 49.3834 2.4061C49.7936 2.44794 50.1915 2.57015 50.5544 2.76578C50.9174 2.9614 51.2382 3.22659 51.4987 3.54622C51.7591 3.86584 51.9541 4.23364 52.0724 4.62861C52.1907 5.02358 52.2301 5.43798 52.1883 5.84816C52.1464 6.25834 52.0242 6.65626 51.8286 7.01921L44.6896 20.3042C44.4203 20.8054 44.0203 21.2243 43.532 21.5163C43.0437 21.8082 42.4853 21.9624 41.9164 21.9624V21.9624Z"  class="secondary" />
    <path d="M17.9509 33.9827C17.7949 33.992 17.6385 33.992 17.4825 33.9827L2.55799 31.6873C1.7588 31.5349 1.04968 31.0789 0.579335 30.415C0.108989 29.7511 -0.0860502 28.9309 0.0351144 28.1264C0.156279 27.3219 0.584236 26.5955 1.22925 26.0996C1.87426 25.6037 2.68622 25.3768 3.49487 25.4665L18.4194 27.6962C19.2121 27.8025 19.9344 28.2074 20.4387 28.8283C20.9429 29.4492 21.1911 30.2392 21.1325 31.0369C21.0739 31.8346 20.7129 32.5798 20.1233 33.1204C19.5338 33.6609 18.7601 33.9559 17.9603 33.9452L17.9509 33.9827Z"  class="secondary" />
    <path d="M25.7272 19.6108C25.1444 19.6094 24.5734 19.4468 24.0773 19.1409C23.5812 18.835 23.1795 18.3977 22.9166 17.8776L16.1523 4.38648C15.8365 3.64861 15.8145 2.81799 16.0908 2.06442C16.367 1.31086 16.9207 0.691274 17.6386 0.332338C18.3564 -0.0265982 19.1843 -0.0977734 19.9529 0.133364C20.7215 0.364501 21.3728 0.880492 21.7736 1.57585L28.5379 15.0669C28.7771 15.5464 28.89 16.079 28.8658 16.6143C28.8416 17.1495 28.6812 17.6698 28.3997 18.1257C28.1183 18.5817 27.7251 18.9583 27.2574 19.2198C26.7898 19.4813 26.2631 19.6191 25.7272 19.6201V19.6108Z"  class="secondary" />
</svg>
