<svg xmlns="http://www.w3.org/2000/svg" width="75.674" height="77.945" viewBox="0 0 75.674 77.945">
  <g id="Grupo_27848" data-name="Grupo 27848" transform="translate(-30 -947.999)">
    <path id="Caminho_23273" data-name="Caminho 23273" d="M1716.535,1723.532h-45.047a1.668,1.668,0,0,1-1.668-1.668,21.265,21.265,0,0,1,21.241-21.242h31.263a1.668,1.668,0,0,1,1.668,1.668c0,.1,0,.206,0,.309l4.433-4.533a11.579,11.579,0,0,1,8.273-3.509h.067a11.578,11.578,0,0,1,8.244,3.416,1.669,1.669,0,0,1,.01,2.349l-18.82,19.158a13.624,13.624,0,0,1-9.661,4.052m-43.3-3.336h43.3a10.268,10.268,0,0,0,7.28-3.053l17.548-17.863a8.332,8.332,0,0,0-10.555,1.12l-8.1,8.284a1.66,1.66,0,0,1-1,.49,11.533,11.533,0,0,1-9.26,4.659h-13.09a1.668,1.668,0,0,1,0-3.337h13.09a8.219,8.219,0,0,0,8.034-6.537h-29.424a17.931,17.931,0,0,0-17.827,16.237" transform="translate(-1639.82 -697.588)" class="primary"/>
    <path id="Caminho_23511" data-name="Caminho 23511" d="M1726.653,1630.084h0c-15.15,0-24.1-37.116-11.581-37.116,4.465,0,4.854,5.9,11.583,5.9,6.555,0,7.229-5.9,11.581-5.9,12.375,0,3.319,37.116-11.579,37.116m11.579-42.907c-4.321,0-6.871,2.5-8.559,4.159-1.508,1.48-1.869,1.743-3.022,1.743-1.256,0-1.6-.3-2.986-1.694-1.566-1.575-4.185-4.208-8.6-4.208a10.775,10.775,0,0,0-9.545,5.623,19.336,19.336,0,0,0-2.176,9.645,45.211,45.211,0,0,0,5.694,20.78c4.583,8.158,10.837,12.652,17.609,12.652,14.155,0,23.185-19.875,23.185-33.557a19.248,19.248,0,0,0-2.137-9.543,10.666,10.666,0,0,0-9.465-5.6" transform="translate(-1658.057 -639.178)" class="secondary"/>
  </g>
</svg>
