<svg xmlns="http://www.w3.org/2000/svg" width="100%" height="100%" viewBox="0 0 45.933 45.05">
  <path id="Icon_metro-instagram" data-name="Icon metro-instagram" d="M21.311,1.928H6.3a3.741,3.741,0,0,0-3.73,3.73v15.01A3.741,3.741,0,0,0,6.3,24.4h15.01a3.741,3.741,0,0,0,3.73-3.73V5.658A3.741,3.741,0,0,0,21.311,1.928ZM9.764,11.759h8.084a4.279,4.279,0,1,1-8.084,0Zm12.468,0v8.425a1.409,1.409,0,0,1-1.4,1.4H6.784a1.409,1.409,0,0,1-1.4-1.4V11.759h2.2a6.386,6.386,0,1,0,12.459,0Zm0-4.917a.7.7,0,0,1-.7.7h-1.4a.7.7,0,0,1-.7-.7v-1.4a.7.7,0,0,1,.7-.7h1.4a.7.7,0,0,1,.7.7Z" transform="translate(9.962 9.364)" class="primary"/>
</svg>
