<svg xmlns="http://www.w3.org/2000/svg" width="100%" height="100%" viewBox="0 0 45.933 45.05">
  <path id="Icon_awesome-linkedin-in" data-name="Icon awesome-linkedin-in" d="M4.951,22.121H.365V7.352H4.951ZM2.656,5.338A2.669,2.669,0,1,1,5.312,2.657,2.678,2.678,0,0,1,2.656,5.338ZM22.115,22.121H17.539V14.931c0-1.713-.035-3.911-2.384-3.911-2.384,0-2.75,1.861-2.75,3.787v7.313H7.824V7.352h4.4V9.367h.064a4.819,4.819,0,0,1,4.339-2.385c4.641,0,5.495,3.056,5.495,7.026v8.112Z" transform="translate(11.8 11.312)" class="primary"/>
</svg>
