<svg id="Grupo_6841" data-name="Grupo 6841" xmlns="http://www.w3.org/2000/svg" width="147.461" height="36.871" viewBox="0 0 147.461 36.871">
  <path id="Caminho_2595" data-name="Caminho 2595" d="M99.282,222.689a10.992,10.992,0,0,0-3.857-.389H91.6v-4.442A10.991,10.991,0,0,0,91.215,214,6.146,6.146,0,0,0,79.7,214a11.011,11.011,0,0,0-.389,3.857V222.3h-3.82a11.014,11.014,0,0,0-3.857.389,6.146,6.146,0,0,0,0,11.512,11.008,11.008,0,0,0,3.857.389h3.82v4.442a10.989,10.989,0,0,0,.389,3.857,6.146,6.146,0,0,0,11.512,0,11.019,11.019,0,0,0,.389-3.857V234.59h3.82a11.021,11.021,0,0,0,3.857-.389,6.146,6.146,0,0,0,0-11.512" transform="translate(-67.646 -210.009)" fill="#62b5e5"/>
  <path id="Caminho_2596" data-name="Caminho 2596" d="M278.811,268.55a13.976,13.976,0,0,1-1.6-.064v7.974h-3.49V254.844c1.665-.064,3.523-.128,5.54-.128,5.124,0,7.942,2.5,7.942,6.5,0,4.195-3.362,7.333-8.39,7.333M279,257.566a15.849,15.849,0,0,0-1.793.064v7.91a11.97,11.97,0,0,0,1.537.128c2.914-.032,4.835-1.633,4.835-4.163,0-2.466-1.441-3.939-4.579-3.939" transform="translate(-230.715 -245.386)" fill="#fff"/>
  <path id="Caminho_2597" data-name="Caminho 2597" d="M354.358,297.345a21.19,21.19,0,0,1,.16-2.946l-.032-.032a5.561,5.561,0,0,1-5.284,3.3,4.193,4.193,0,0,1-4.451-4.419c0-3.587,3.555-5.54,9.383-5.54v-.929c0-1.953-.832-3.01-3.33-3.01a10.619,10.619,0,0,0-4.547,1.153l-.672-2.754a17.13,17.13,0,0,1,5.8-1.057c4.836,0,6.18,2.114,6.18,5.284v6.6c0,1.377.032,3.01.1,4.355Zm-.224-7.333c-4.771,0-6.085,1.313-6.085,2.818a2.059,2.059,0,0,0,2.178,2.145c2.337,0,3.907-2.241,3.907-4.515Z" transform="translate(-286.924 -266.273)" fill="#fff"/>
  <path id="Caminho_2598" data-name="Caminho 2598" d="M426.942,297.846c-4.1,0-7.077-2.017-7.077-7.686,0-5.06,2.594-8.742,7.91-8.742a10.4,10.4,0,0,1,3.714.608l-.576,2.914a9.207,9.207,0,0,0-3.33-.672c-2.69,0-4.131,2.241-4.131,5.508,0,2.914,1.025,5.124,4.163,5.124a7.9,7.9,0,0,0,3.426-.7l.513,2.85a12.574,12.574,0,0,1-4.611.8" transform="translate(-346.363 -266.516)" fill="#fff"/>
  <path id="Caminho_2599" data-name="Caminho 2599" d="M497.126,270.267V260.052c0-1.986-.544-3.171-2.369-3.171-2.4,0-4.163,2.53-4.163,5.732v7.653h-3.427V246.891h3.427v7.237a14.9,14.9,0,0,1-.288,3.2l.064.032a5.673,5.673,0,0,1,5.412-3.331c3.619,0,4.739,2.306,4.739,5.092v11.144Z" transform="translate(-399.62 -239.194)" fill="#fff"/>
  <path id="Caminho_2600" data-name="Caminho 2600" d="M578.7,289.66H568.552c-.1,3.619,1.536,5.251,4.707,5.251a11.419,11.419,0,0,0,4.58-.96l.448,2.69a15.343,15.343,0,0,1-5.636,1.025c-4.9,0-7.622-2.562-7.622-8.166,0-4.8,2.626-8.39,7.269-8.39,4.547,0,6.5,3.106,6.5,6.885,0,.448-.032.992-.1,1.665m-6.533-6.02c-1.921,0-3.266,1.409-3.554,3.651h6.757c.064-2.274-1.185-3.651-3.2-3.651" transform="translate(-461.234 -266.273)" fill="#fff"/>
  <path id="Caminho_2601" data-name="Caminho 2601" d="M647.372,297.846c-4.1,0-7.077-2.017-7.077-7.686,0-5.06,2.594-8.742,7.909-8.742a10.4,10.4,0,0,1,3.715.608l-.577,2.914a9.205,9.205,0,0,0-3.33-.672c-2.69,0-4.131,2.241-4.131,5.508,0,2.914,1.025,5.124,4.163,5.124a7.9,7.9,0,0,0,3.427-.7l.512,2.85a12.573,12.573,0,0,1-4.611.8" transform="translate(-520.793 -266.516)" fill="#fff"/>
  <path id="Caminho_2602" data-name="Caminho 2602" d="M708.685,297.666c-4.419,0-7.3-2.466-7.3-8.07,0-4.8,3.106-8.486,7.942-8.486,4.259,0,7.269,2.37,7.269,7.974,0,4.9-3.2,8.582-7.91,8.582m.352-13.673c-2.082,0-4.1,1.6-4.1,5.252,0,3.586,1.409,5.476,4.067,5.476,2.21,0,4.067-1.729,4.067-5.412,0-3.394-1.313-5.316-4.035-5.316" transform="translate(-569.134 -266.273)" fill="#fff"/>
  <path id="Caminho_2603" data-name="Caminho 2603" d="M528.07,218.322l-.07-.813h-.012a2,2,0,0,1-1.792.967c-1.663,0-2.193-1.344-2.193-3.077,0-1.674.578-3.125,2.287-3.125a1.836,1.836,0,0,1,1.662.885h.012V210.01h1.061v6.7c0,.837.035,1.615.035,1.615Zm-.106-3.454a1.581,1.581,0,0,0-1.415-1.686c-1.025,0-1.45.837-1.45,1.863v.731c0,1.108.554,1.792,1.4,1.792a1.568,1.568,0,0,0,1.462-1.616Z" transform="translate(-428.769 -210.01)" fill="#fff"/>
  <path id="Caminho_2604" data-name="Caminho 2604" d="M561.087,221.906a2.972,2.972,0,0,0-.378-.024,1.539,1.539,0,0,0-1.544,1.5V226.9H558.1V221.01h1.014v.932h.012a1.949,1.949,0,0,1,1.756-1.085,1.666,1.666,0,0,1,.26.024Z" transform="translate(-455.754 -218.593)" fill="#fff"/>
  <path id="Caminho_2605" data-name="Caminho 2605" d="M580.84,227.047c-1.863,0-2.511-1.179-2.511-3.065,0-1.851.7-3.124,2.558-3.124s2.511,1.191,2.511,3.077c0,1.863-.7,3.112-2.558,3.112m1.462-3.525c0-1.108-.5-1.792-1.427-1.792s-1.45.719-1.45,1.827v.837c0,1.108.495,1.792,1.427,1.792s1.45-.719,1.45-1.827Z" transform="translate(-471.758 -218.593)" fill="#fff"/>
  <path id="Caminho_2606" data-name="Caminho 2606" d="M614.651,222.673v4.1a2.506,2.506,0,0,1-2.747,2.712,3.844,3.844,0,0,1-1.863-.448l.059-.955a3.6,3.6,0,0,0,1.71.507c1.073,0,1.78-.46,1.78-1.816v-.766h-.011a2.022,2.022,0,0,1-1.781.9c-1.651,0-2.169-1.308-2.169-2.994,0-1.639.577-3.054,2.287-3.054a1.861,1.861,0,0,1,1.721.943h.012l.059-.79h.979s-.035.649-.035,1.663m-1.061.719a1.546,1.546,0,0,0-1.427-1.627c-1.026,0-1.438.814-1.438,1.792v.707c0,1.061.554,1.721,1.4,1.721a1.518,1.518,0,0,0,1.462-1.544Z" transform="translate(-496.527 -218.593)" fill="#fff"/>
  <path id="Caminho_2607" data-name="Caminho 2607" d="M645.547,226.949l-.071-.861h-.012a2.168,2.168,0,0,1-1.839,1.014,1.6,1.6,0,0,1-1.792-1.7c0-1.215.99-1.934,2.605-1.934a7.032,7.032,0,0,1,.979.071v-.7c0-.743-.484-1.049-1.285-1.049a4.184,4.184,0,0,0-1.78.448l-.059-.884a4.45,4.45,0,0,1,2.028-.448c1.262,0,2.158.424,2.158,1.945v2.464c0,.755.047,1.627.047,1.627Zm-.13-2.664a4.959,4.959,0,0,0-.908-.071c-.707,0-1.592.259-1.592,1.12a.887.887,0,0,0,.991.92,1.61,1.61,0,0,0,1.509-1.592Z" transform="translate(-522.01 -218.638)" fill="#fff"/>
  <path id="Caminho_2608" data-name="Caminho 2608" d="M677.131,221.906a2.966,2.966,0,0,0-.377-.024,1.539,1.539,0,0,0-1.544,1.5V226.9h-1.061V221.01h1.014v.932h.011a1.951,1.951,0,0,1,1.757-1.085,1.657,1.657,0,0,1,.259.024Z" transform="translate(-547.582 -218.593)" fill="#fff"/>
  <path id="Caminho_2609" data-name="Caminho 2609" d="M696,211.561a.719.719,0,1,1,.719-.719.715.715,0,0,1-.719.719m-.531.955h1.061v5.895h-1.061Z" transform="translate(-564.301 -210.099)" fill="#fff"/>
  <path id="Caminho_2610" data-name="Caminho 2610" d="M713.285,226.949l-.071-.861H713.2a2.169,2.169,0,0,1-1.84,1.014,1.6,1.6,0,0,1-1.792-1.7c0-1.215.99-1.934,2.606-1.934a7.024,7.024,0,0,1,.978.071v-.7c0-.743-.483-1.049-1.285-1.049a4.186,4.186,0,0,0-1.78.448l-.059-.884a4.451,4.451,0,0,1,2.028-.448c1.261,0,2.157.424,2.157,1.945v2.464c0,.755.047,1.627.047,1.627Zm-.13-2.664a4.953,4.953,0,0,0-.908-.071c-.707,0-1.592.259-1.592,1.12a.887.887,0,0,0,.991.92,1.61,1.61,0,0,0,1.509-1.592Z" transform="translate(-575.612 -218.638)" fill="#fff"/>
  <path id="Caminho_2611" data-name="Caminho 2611" d="M742.252,227.046a3.572,3.572,0,0,1-1.721-.413l.059-.9a3.1,3.1,0,0,0,1.6.472c.908,0,1.226-.4,1.226-.861,0-.531-.4-.743-1.085-1l-.378-.153c-.778-.295-1.414-.743-1.414-1.71s.7-1.627,2.11-1.627a3.332,3.332,0,0,1,1.544.378l-.059.908a2.981,2.981,0,0,0-1.45-.436c-.754,0-1.061.294-1.061.719,0,.46.342.7,1.084.979l.377.141c.814.306,1.415.743,1.415,1.721,0,1.085-.743,1.78-2.252,1.78" transform="translate(-600.112 -218.592)" fill="#fff"/>
  <path id="Caminho_2612" data-name="Caminho 2612" d="M189.47,275.01a6.04,6.04,0,0,0-2.122-.214h-4.894v6.76h4.894a6.062,6.062,0,0,0,2.122-.214,3.38,3.38,0,0,0,0-6.331" transform="translate(-158.496 -261.276)" fill="#fff"/>
  <path id="Caminho_2613" data-name="Caminho 2613" d="M100.205,233.565a3.374,3.374,0,0,0-3.166,2.195,6.055,6.055,0,0,0-.214,2.122v4.287H92.538a6.057,6.057,0,0,0-2.122.214,3.381,3.381,0,0,0,0,6.332,6.054,6.054,0,0,0,2.122.214h11.047V237.882a6.039,6.039,0,0,0-.214-2.122,3.373,3.373,0,0,0-3.166-2.195" transform="translate(-83.928 -228.649)" fill="#fff"/>
  <path id="Caminho_2614" data-name="Caminho 2614" d="M129.45,333.317a6.045,6.045,0,0,0,.214,2.122,3.381,3.381,0,0,0,6.331,0,6.059,6.059,0,0,0,.214-2.122V327.8h-6.76Z" transform="translate(-116.553 -303.22)" fill="#fff"/>
</svg>
