<svg id="Grupo_6840" data-name="Grupo 6840" xmlns="http://www.w3.org/2000/svg" width="172.235" height="30.797" viewBox="0 0 172.235 30.797">
  <g id="Grupo_6838" data-name="Grupo 6838" transform="translate(61.087 0)">
    <path id="Caminho_2577" data-name="Caminho 2577" d="M220.07,21.79h2.612a3.955,3.955,0,0,1,4.254,4.113,3.892,3.892,0,0,1-4.222,4.086H220.07Zm2.559,6.948a2.849,2.849,0,0,0,.081-5.7h-1.247v5.7Z" transform="translate(-220.07 -21.79)" fill="#fff"/>
    <path id="Caminho_2578" data-name="Caminho 2578" d="M250.731,29.973v1.437c-.147-.012-.3-.018-.388-.018A1.492,1.492,0,0,0,248.8,33.01v2.671h-1.29V30.05h1.29V30.9h.017a2.16,2.16,0,0,1,1.751-.931A1,1,0,0,1,250.731,29.973Z" transform="translate(-239.18 -27.483)" fill="#fff"/>
    <path id="Caminho_2579" data-name="Caminho 2579" d="M260.037,32.879a2.955,2.955,0,1,1,2.957,2.9A2.812,2.812,0,0,1,260.037,32.879Zm4.6,0a1.646,1.646,0,1,0-1.641,1.727A1.633,1.633,0,0,0,264.635,32.879Z" transform="translate(-247.901 -27.487)" fill="#fff"/>
    <path id="Caminho_2580" data-name="Caminho 2580" d="M288.5,30.043v5.05c0,1.705-.784,2.947-2.867,2.947a4.544,4.544,0,0,1-2.293-.585l.3-1.137a3.71,3.71,0,0,0,1.916.554c1.11,0,1.68-.628,1.68-1.385v-.6h-.022a2.289,2.289,0,0,1-1.708.688,2.813,2.813,0,0,1-.068-5.623,2.508,2.508,0,0,1,1.747.684h.02v-.6Zm-2.822,4.347a1.553,1.553,0,0,0,1.59-1.646,1.6,1.6,0,1,0-1.589,1.646Z" transform="translate(-263.722 -27.476)" fill="#fff"/>
    <path id="Caminho_2581" data-name="Caminho 2581" d="M311.645,30.054v5.632H310.41v-.754H310.4a2.154,2.154,0,0,1-1.793.844,2.684,2.684,0,0,1-2.727-2.879,2.742,2.742,0,0,1,2.713-2.925,2.2,2.2,0,0,1,1.741.76h.023v-.677Zm-2.84,4.552a1.614,1.614,0,0,0,1.6-1.7,1.615,1.615,0,1,0-3.217,0,1.591,1.591,0,0,0,1.615,1.7Z" transform="translate(-279.821 -27.487)" fill="#fff"/>
    <path id="Caminho_2582" data-name="Caminho 2582" d="M333.446,29.973v1.437c-.145-.012-.295-.018-.388-.018a1.493,1.493,0,0,0-1.539,1.619v2.671h-1.29V30.05h1.29V30.9h.017a2.159,2.159,0,0,1,1.753-.931A.951.951,0,0,1,333.446,29.973Z" transform="translate(-296.779 -27.483)" fill="#fff"/>
    <path id="Caminho_2583" data-name="Caminho 2583" d="M343.92,22.708a.871.871,0,1,1,.874.856A.862.862,0,0,1,343.92,22.708Zm.22,1.693h1.291v5.632H344.14Z" transform="translate(-306.312 -21.833)" fill="#fff"/>
    <path id="Caminho_2584" data-name="Caminho 2584" d="M359.337,30.054v5.632H358.1v-.754h-.016a2.148,2.148,0,0,1-1.79.844,2.685,2.685,0,0,1-2.728-2.879,2.742,2.742,0,0,1,2.715-2.925,2.2,2.2,0,0,1,1.742.76h.023v-.677Zm-2.84,4.552a1.613,1.613,0,0,0,1.6-1.7,1.615,1.615,0,1,0-3.217,0,1.592,1.592,0,0,0,1.617,1.7Z" transform="translate(-313.03 -27.487)" fill="#fff"/>
  </g>
  <path id="Caminho_2585" data-name="Caminho 2585" d="M39.261,31.97V21.79H18.9V52.33H39.261V42.146H29.081V31.97Z" transform="translate(-18.9 -21.79)" fill="#ff4749"/>
  <path id="Caminho_2586" data-name="Caminho 2586" d="M129.655,21.79H119.475V31.97h10.181V42.146H119.475V52.33h20.361V21.79Z" transform="translate(-88.934 -21.79)" fill="#a4dbe8"/>
  <g id="Grupo_6839" data-name="Grupo 6839" transform="translate(60.58 11.138)">
    <path id="Caminho_2587" data-name="Caminho 2587" d="M225.308,79.131a9.688,9.688,0,0,1-6.908-2.986l2.6-3.216a6.3,6.3,0,0,0,4.413,2.238c1.531,0,2.109-.693,2.109-1.529,0-1.031-.656-1.48-2.792-2.186-2.856-.98-5.686-2.332-5.686-6,0-3.113,2.715-5.493,6.137-5.544a9.826,9.826,0,0,1,6.51,2.443l-2.508,3.27c-1.584-1.274-2.793-1.8-3.862-1.8s-1.7.553-1.711,1.454c-.01.836.672,1.273,2.73,2.071,3.281,1.261,5.788,2.123,5.788,5.775,0,4.414-3.832,6.01-6.819,6.01Z" transform="translate(-218.4 -59.472)" fill="#fff"/>
    <path id="Caminho_2588" data-name="Caminho 2588" d="M281.88,79.351V92.242h-3.91v-1.39h-.052a4.255,4.255,0,0,1-3.578,1.632c-3.549,0-6.071-2.688-6.071-6.675,0-3.937,2.546-6.7,5.88-6.7a4.556,4.556,0,0,1,3.549,1.607h.053V79.351Zm-3.962,6.472a2.758,2.758,0,1,0-5.481,0,2.755,2.755,0,1,0,5.481,0Z" transform="translate(-253.125 -72.84)" fill="#fff"/>
    <path id="Caminho_2589" data-name="Caminho 2589" d="M318.1,85.8c0-3.91,2.816-6.7,6.96-6.7,4.092,0,6.946,2.741,6.946,6.7s-2.855,6.691-6.946,6.691C320.914,92.494,318.1,89.715,318.1,85.8Zm6.96,3.024a2.842,2.842,0,0,0,2.793-3.024,2.807,2.807,0,1,0-5.6,0,2.842,2.842,0,0,0,2.8,3.024Z" transform="translate(-287.824 -72.835)" fill="#fff"/>
    <path id="Caminho_2590" data-name="Caminho 2590" d="M371.687,60.712H378.8c4.618,0,6.667,2.742,6.667,6.459,0,4.17-2.779,6.229-7,6.229h-2.444v6.033h-4.337Zm6.188,8.812c1.931,0,3.024-.924,3.024-2.456,0-1.4-.977-2.457-2.957-2.457h-1.917v4.913Z" transform="translate(-325.14 -60.031)" fill="#fff"/>
    <path id="Caminho_2591" data-name="Caminho 2591" d="M432.742,79.351V92.242H428.83v-1.39h-.051a4.253,4.253,0,0,1-3.577,1.632c-3.55,0-6.071-2.688-6.071-6.675,0-3.937,2.547-6.7,5.879-6.7a4.562,4.562,0,0,1,3.552,1.607h.05V79.351Zm-3.962,6.472a2.758,2.758,0,1,0-5.481,0,2.755,2.755,0,1,0,5.481,0Z" transform="translate(-358.177 -72.84)" fill="#fff"/>
    <path id="Caminho_2592" data-name="Caminho 2592" d="M484.2,79.911V92.8h-4.129V91.35h-.067a4.614,4.614,0,0,1-3.639,1.7c-2.7,0-4.647-1.414-4.647-5.492V79.911h4.118v6.624c0,2.085.581,2.844,1.967,2.844,1.239,0,2.269-.989,2.269-3.088v-6.38Z" transform="translate(-394.799 -73.4)" fill="#fff"/>
    <path id="Caminho_2593" data-name="Caminho 2593" d="M521.018,58.469h4.1v19.4h-4.1Z" transform="translate(-429.126 -58.469)" fill="#fff"/>
    <path id="Caminho_2594" data-name="Caminho 2594" d="M540.3,85.8c0-3.91,2.816-6.7,6.959-6.7,4.091,0,6.947,2.741,6.947,6.7s-2.856,6.691-6.947,6.691C543.119,92.494,540.3,89.715,540.3,85.8Zm6.959,3.024a2.84,2.84,0,0,0,2.792-3.024,2.807,2.807,0,1,0-5.6,0,2.843,2.843,0,0,0,2.806,3.024Z" transform="translate(-442.555 -72.835)" fill="#fff"/>
  </g>
  <rect id="Retângulo_3495" data-name="Retângulo 3495" width="8.632" height="2.755" transform="translate(80.703 12.81)" fill="#3f4444"/>
</svg>
