<svg xmlns="http://www.w3.org/2000/svg" viewBox="0 0 238.038 39.655">
  <g id="Grupo_11365" data-name="Grupo 11365" transform="translate(20969 14462)">
    <path id="Caminho_6139" data-name="Caminho 6139" d="M899.824,524.84c-3.517,0-5.593,2.038-6.967,3.386-1.227,1.206-1.521,1.42-2.46,1.42-1.023,0-1.3-.242-2.43-1.38a9.548,9.548,0,0,0-7-3.427,8.773,8.773,0,0,0-7.77,4.579,15.763,15.763,0,0,0-1.771,7.854,36.828,36.828,0,0,0,4.635,16.92c3.73,6.644,8.821,10.3,14.333,10.3,11.523,0,18.873-16.184,18.873-27.326a15.684,15.684,0,0,0-1.739-7.77A8.684,8.684,0,0,0,899.824,524.84ZM890.4,559.779h0c-12.332,0-19.62-30.223-9.427-30.223,3.635,0,3.951,4.807,9.429,4.807,5.336,0,5.886-4.807,9.427-4.807C909.9,529.556,902.526,559.779,890.4,559.779Z" transform="translate(-21840.428 -14986.84)" class="secondary"/>
    <g id="Grupo_11268" data-name="Grupo 11268" transform="translate(-20918.729 -14457.313)">
      <path id="Caminho_6140" data-name="Caminho 6140" d="M919.154,533.721c-5.644,0-9.29,3.581-9.29,9.123,0,5.562,3.646,9.157,9.29,9.157,5.6,0,9.221-3.594,9.221-9.157C928.375,537.3,924.756,533.721,919.154,533.721Zm-.068,3.7c3.106,0,5.113,2.128,5.113,5.421,0,3.335-1.98,5.489-5.044,5.489-3.038,0-5.08-2.205-5.08-5.489S916.041,537.422,919.086,537.422Z" transform="translate(-909.864 -526.792)" class="primary"/>
      <path id="Caminho_6141" data-name="Caminho 6141" d="M944.559,549.781c-.74-.5-1-1.244-1-2.825V529.668a1.246,1.246,0,0,0-1.245-1.245h-1.584a1.246,1.246,0,0,0-1.245,1.245v7.926a6.689,6.689,0,0,0-5.216-2.242c-5.024,0-8.27,3.622-8.27,9.225,0,5.331,3.4,9.055,8.27,9.055a6.372,6.372,0,0,0,5.8-3.042,3.342,3.342,0,0,0,3.2,3.042h.078a2.27,2.27,0,0,0,1.632-.578,2.079,2.079,0,0,0,.583-1.512,2.218,2.218,0,0,0-.829-1.583Zm-5.076-5.34c0,3.467-1.641,5.455-4.5,5.455-2.921,0-4.808-2.115-4.808-5.387s1.86-5.387,4.74-5.387C937.817,539.122,939.483,541.061,939.483,544.441Z" transform="translate(-904.897 -528.423)" class="primary"/>
      <path id="Caminho_6142" data-name="Caminho 6142" d="M1010.877,533.759a6.37,6.37,0,0,0-5.8,3.044,3.342,3.342,0,0,0-3.2-3.044,2.316,2.316,0,0,0-1.711.577,2.082,2.082,0,0,0-.583,1.512,2.218,2.218,0,0,0,.829,1.584l.173.179c.74.5,1,1.244,1,2.825v17.288a1.246,1.246,0,0,0,1.245,1.245h1.584a1.246,1.246,0,0,0,1.245-1.245V549.8a6.685,6.685,0,0,0,5.215,2.24c5.025,0,8.27-3.62,8.27-9.225C1019.147,537.483,1015.747,533.759,1010.877,533.759Zm4.1,9.123c0,3.272-1.861,5.387-4.74,5.387-2.9,0-4.57-1.938-4.57-5.319,0-3.466,1.64-5.455,4.5-5.455C1013.085,537.495,1014.972,539.609,1014.972,542.882Z" transform="translate(-882.239 -526.78)" class="primary"/>
      <path id="Caminho_6143" data-name="Caminho 6143" d="M951.659,533.721c-5.642,0-9.289,3.581-9.289,9.123,0,5.562,3.646,9.157,9.289,9.157,5.6,0,9.222-3.594,9.222-9.157C960.881,537.3,957.26,533.721,951.659,533.721Zm0,14.612c-3.038,0-5.079-2.205-5.079-5.489s1.967-5.421,5.011-5.421c3.106,0,5.114,2.128,5.114,5.421C956.7,546.179,954.724,548.333,951.659,548.333Z" transform="translate(-899.856 -526.792)" class="primary"/>
      <path id="Caminho_6144" data-name="Caminho 6144" d="M968.529,533.721a8.6,8.6,0,0,0-6.065,2.465c0-.443,0-1.274,0-1.821a.647.647,0,0,0-.647-.645h-2.1a.649.649,0,0,0-.649.649v17a.632.632,0,0,0,.632.632h2.815a.632.632,0,0,0,.632-.629l.03-8.73c.033-3.121,1.9-5.218,4.638-5.218,2.558,0,3.857,1.709,3.857,5.081v8.865a.631.631,0,0,0,.63.632h2.812a.631.631,0,0,0,.63-.632V542.2C975.746,536.653,973.25,533.721,968.529,533.721Z" transform="translate(-894.714 -526.792)" class="primary"/>
      <path id="Caminho_6145" data-name="Caminho 6145" d="M984.646,548.573a2.161,2.161,0,0,0-.994.276,2.807,2.807,0,0,1-1.2.334,1.987,1.987,0,0,1-1.472-.556,2.066,2.066,0,0,1-.634-1.484V538.32h4.336a.752.752,0,0,0,.751-.751v-2.132a.751.751,0,0,0-.751-.751h-4.336v-3.463a.714.714,0,0,0-.713-.713h-2.647a.714.714,0,0,0-.714.713v3.463h-2.265a.758.758,0,0,0-.756.757v2.119a.758.758,0,0,0,.756.757h2.265v7.688c0,3.2.976,7.016,5.62,7.016a4.906,4.906,0,0,0,3.691-1.232,2.36,2.36,0,0,0,.538-1.537A1.554,1.554,0,0,0,984.646,548.573Z" transform="translate(-890.347 -527.78)" class="primary"/>
      <path id="Caminho_6146" data-name="Caminho 6146" d="M993.395,533.721c-5.642,0-9.289,3.581-9.289,9.123,0,5.562,3.646,9.157,9.289,9.157,5.6,0,9.221-3.594,9.221-9.157C1002.615,537.3,999,533.721,993.395,533.721Zm5.046,9.123c0,3.335-1.981,5.489-5.046,5.489-3.038,0-5.08-2.205-5.08-5.489s1.967-5.421,5.012-5.421C996.433,537.422,998.441,539.55,998.441,542.844Z" transform="translate(-887.005 -526.792)" class="primary"/>
      <path id="Caminho_6147" data-name="Caminho 6147" d="M1025.575,533.747h0a6.943,6.943,0,0,0-5.178,2.93v-2.146a.784.784,0,0,0-.783-.783h-1.827a.784.784,0,0,0-.783.783v16.744a.75.75,0,0,0,.751.751h2.577a.751.751,0,0,0,.749-.748l.033-9.359a4.339,4.339,0,0,1,4.468-4.4,1.885,1.885,0,1,0,0-3.769Z" transform="translate(-876.878 -526.784)" class="primary"/>
      <path id="Caminho_6148" data-name="Caminho 6148" d="M1034.216,533.748c-5.05,0-8.576,3.722-8.576,9.053,0,5.777,3.626,9.225,9.7,9.225a13.887,13.887,0,0,0,5.416-1.362.745.745,0,0,0,.385-.935l-.7-1.919a.75.75,0,0,0-1-.433,10.394,10.394,0,0,1-4.134.947c-3.967,0-5.428-2.153-5.485-4.045h10.173c1.606,0,2.291-.757,2.291-2.531C1042.282,536.812,1039.191,533.748,1034.216,533.748Zm3.925,7.15c0,.107,0,.331-.018.494h-8.3a4.2,4.2,0,0,1,4.33-4.147C1036.647,537.245,1038.141,538.611,1038.141,540.9Z" transform="translate(-874.217 -526.783)" class="primary"/>
      <path id="Caminho_6149" data-name="Caminho 6149" d="M1057.655,534.085a.769.769,0,0,0-.638-.337h-2.506a.776.776,0,0,0-.721.494l-4.847,12.63a.442.442,0,0,1-.421.29h0a.443.443,0,0,1-.421-.292l-4.862-12.629a.774.774,0,0,0-.721-.494h-2.484a.772.772,0,0,0-.717,1.057l5.46,13.712c.867,2.378,1.634,3.509,3.643,3.509h.272c1.711,0,2.595-.885,3.641-3.641l5.4-13.58A.771.771,0,0,0,1057.655,534.085Z" transform="translate(-870.023 -526.783)" class="primary"/>
    </g>
  </g>
</svg>
