<svg xmlns="http://www.w3.org/2000/svg" width="58.072" height="77.943" viewBox="0 0 58.072 77.943">
  <g id="Grupo_27846" data-name="Grupo 27846" transform="translate(-438 -814.001)">
    <path id="Caminho_23279" data-name="Caminho 23279" d="M1782.85,769.4a2.07,2.07,0,0,1-1.574-.721c-.274-.321-27.465-32.332-27.465-48.186a29.036,29.036,0,1,1,58.072,0c0,15.083-24.637,44.825-27.447,48.167a2.074,2.074,0,0,1-1.577.741Zm0-73.808a24.93,24.93,0,0,0-24.9,24.9c0,10.919,16.705,33.594,24.9,43.606,9.439-11.547,24.9-33.133,24.9-43.606a24.93,24.93,0,0,0-24.9-24.9" transform="translate(-1315.811 122.543)" class="primary"/>
    <path id="Caminho_23280" data-name="Caminho 23280" d="M1810.233,734.948a9.937,9.937,0,1,1-9.937-9.937,9.937,9.937,0,0,1,9.937,9.937" transform="translate(-1333.257 106.523)" class="secondary"/>
  </g>
</svg>
