<svg id="Prize_Check" xmlns="http://www.w3.org/2000/svg" width="48" height="48" viewBox="0 0 48 48">
  <g id="Grupo_28124" data-name="Grupo 28124">
    <path id="Caminho_23542" data-name="Caminho 23542" d="M13.5,44.85a2.046,2.046,0,0,1-1.12-.34,2,2,0,0,1-.88-1.66V30.12a1,1,0,1,1,2,0V42.85l8.63-3.45a1.048,1.048,0,0,1,.74,0l8.63,3.45V33.12a1,1,0,1,1,2,0v9.73a2.022,2.022,0,0,1-.88,1.66,1.99,1.99,0,0,1-1.86.2l-8.26-3.3-8.26,3.3a1.907,1.907,0,0,1-.74.14Z" class="primary"/>
    <path id="Caminho_23543" data-name="Caminho 23543" d="M35.5,44.85a1,1,0,0,1-1-1v-14a1,1,0,0,1,2,0v14A1,1,0,0,1,35.5,44.85Z" class="primary"/>
  </g>
  <path id="Caminho_23544" data-name="Caminho 23544" d="M23.18,27.78a1.993,1.993,0,0,1-1.41-.59l-7.62-7.62a2,2,0,0,1,2.83-2.83l6.21,6.21L37.02,9.12a2,2,0,0,1,2.83,2.83L24.61,27.19a1.993,1.993,0,0,1-1.41.59Z" class="secondary"/>
  <path id="Caminho_23545" data-name="Caminho 23545" d="M23.8,36.15A16,16,0,1,1,33.23,7.24a1,1,0,1,1-1.18,1.62,13.993,13.993,0,1,0,5.75,11.3,13.207,13.207,0,0,0-.17-2.04,1,1,0,1,1,1.98-.28,15.581,15.581,0,0,1,.19,2.32,16.021,16.021,0,0,1-16,16Z" class="primary"/>
</svg>
