<svg viewBox="0 0 136 136" fill="none" xmlns="http://www.w3.org/2000/svg">
    <path d="M99.6002 92.042C101.169 98.0683 84.7407 108.552 68.0651 108.47C51.6371 108.47 35.4568 98.2334 36.9427 92.2071C38.5112 86.0156 54.609 82.0531 67.8174 87.9969C81.934 80.9799 98.0317 85.8505 99.6002 92.042Z" fill="currentColor" class="secondary" />
    <path fill-rule="evenodd" clip-rule="evenodd" d="M129.917 32.7026C132.69 36.362 131.97 41.5759 128.311 44.3482C116.715 53.1328 96.2064 65.383 69.3883 65.9284L69.3781 65.9286C40.8119 66.4745 19.1081 53.4752 7.36883 44.7145C3.68949 41.9687 2.93269 36.7602 5.67846 33.0808C8.42424 29.4015 13.6328 28.6447 17.3122 31.3905C27.6962 39.1397 45.781 49.7496 69.0553 49.3065C90.9409 48.8598 108.074 38.8217 118.272 31.0963C121.931 28.3241 127.145 29.0432 129.917 32.7026Z" fill="currentColor" class="secondary" />
    <path fill-rule="evenodd" clip-rule="evenodd" d="M124.282 37.4684C124.6 35.4019 122.254 33.9735 120.592 35.1126L120.573 35.1255C108.983 42.9657 91.3412 51.7801 69.2944 52.2124L69.2902 52.2125C45.9462 52.6448 27.3491 43.5662 15.4155 35.6388L15.3826 35.6167C13.7544 34.5108 11.4768 35.8119 11.701 37.8798C12.9088 48.7468 16.0292 63.5277 24.255 76.5323L24.2636 76.546C39.1535 100.308 59.6664 100.926 65.6853 101.08C65.7017 101.08 65.718 101.081 65.7344 101.081C71.646 101.309 91.9774 101.549 108.37 78.8156L108.377 78.8061C118.355 65.0568 122.511 49.0609 124.282 37.4723L124.282 37.4684ZM131.877 38.6327C133.206 29.9736 123.511 23.8116 116.26 28.7672C105.396 36.1149 89.1952 44.1369 69.1464 44.5307C47.9219 44.9233 30.8625 36.6735 19.6813 29.2487C12.5618 24.4336 3.13505 30.2278 4.06364 38.7178L4.06437 38.7244C5.33327 50.1445 8.65139 66.2331 17.7574 80.6326C34.7124 107.684 58.5728 108.583 65.4638 108.76C72.4606 109.027 96.0102 109.087 114.597 83.3162C125.586 68.1727 130.015 50.8185 131.877 38.6327Z" fill="currentColor" class="primary" />
</svg>
