<svg xmlns="http://www.w3.org/2000/svg" width="94.416" height="53.5" viewBox="0 0 94.416 53.5">
  <g id="Grupo_27850" data-name="Grupo 27850" transform="translate(13055.369 18187.445)">
    <path id="Caminho_23515" data-name="Caminho 23515" d="M1855.5,1104.094a11.71,11.71,0,1,1,11.709-11.709,11.723,11.723,0,0,1-11.709,11.709m0-20.933a9.223,9.223,0,1,0,9.224,9.223,9.234,9.234,0,0,0-9.224-9.223" transform="translate(-14836.138 -19259.881)" class="primary"/>
    <path id="Caminho_23516" data-name="Caminho 23516" d="M1877.659,1160.331h-19.672a1.243,1.243,0,1,1,0-2.486h18.384a17.22,17.22,0,0,0-17.153-15.955,17.045,17.045,0,0,0-7.307,1.625,1.243,1.243,0,1,1-1.058-2.25,19.692,19.692,0,0,1,28.048,17.823,1.243,1.243,0,0,1-1.243,1.243" transform="translate(-14839.855 -19294.275)" class="primary"/>
    <path id="Caminho_23519" data-name="Caminho 23519" d="M1823.948,1167.181h-5.423a1.993,1.993,0,0,1-1.993-1.994v-2.823a1.994,1.994,0,0,1,1.993-1.994h5.423a1.994,1.994,0,0,1,1.993,1.994v2.823a1.994,1.994,0,0,1-1.993,1.994" transform="translate(-14820.175 -19306.555)" class="secondary"/>
    <path id="Caminho_23513" data-name="Caminho 23513" d="M1785.611,1088.246a13.725,13.725,0,1,1,13.725-13.725,13.74,13.74,0,0,1-13.725,13.725m0-24.964a11.239,11.239,0,1,0,11.239,11.238,11.251,11.251,0,0,0-11.239-11.238" transform="translate(-14794.027 -19248.24)" class="primary"/>
    <path id="Caminho_23514" data-name="Caminho 23514" d="M1794.163,1155.312h-43.984a1.243,1.243,0,0,1-1.243-1.243,23.235,23.235,0,1,1,46.47,0,1.243,1.243,0,0,1-1.243,1.243m-42.7-2.486h41.424a20.749,20.749,0,0,0-41.424,0" transform="translate(-14780.588 -19289.256)" class="primary"/>
    <path id="Caminho_23517" data-name="Caminho 23517" d="M1722.654,1104.094a11.71,11.71,0,1,1,11.71-11.709,11.723,11.723,0,0,1-11.71,11.709m0-20.933a9.223,9.223,0,1,0,9.224,9.223,9.234,9.234,0,0,0-9.224-9.223" transform="translate(-14758.34 -19259.881)" class="primary"/>
    <path id="Caminho_23518" data-name="Caminho 23518" d="M1711.954,1160.331h-19.012a1.243,1.243,0,0,1-1.243-1.243,19.693,19.693,0,0,1,27.919-17.884,1.243,1.243,0,1,1-1.041,2.258,17.207,17.207,0,0,0-24.346,14.383h17.724a1.243,1.243,0,0,1,0,2.486" transform="translate(-14747.068 -19294.275)" class="primary"/>
  </g>
</svg>
