<svg xmlns="http://www.w3.org/2000/svg" width="100%" height="100%" viewBox="0 0 45.933 45.05">
  <path id="Icon_awesome-youtube" data-name="Icon awesome-youtube" d="M27.207,7.439a3.357,3.357,0,0,0-2.362-2.377C22.762,4.5,14.408,4.5,14.408,4.5s-8.354,0-10.438.562A3.357,3.357,0,0,0,1.608,7.439a35.214,35.214,0,0,0-.558,6.472,35.214,35.214,0,0,0,.558,6.472A3.307,3.307,0,0,0,3.97,22.722c2.083.562,10.438.562,10.438.562s8.354,0,10.438-.562a3.307,3.307,0,0,0,2.362-2.339,35.214,35.214,0,0,0,.558-6.472,35.214,35.214,0,0,0-.558-6.472ZM11.675,17.883V9.939l6.982,3.972-6.982,3.972Z" transform="translate(8.147 9.6)" class="primary"/>
</svg>
